<svg xmlns="http://www.w3.org/2000/svg" width="86.479" height="26.01" viewBox="0 0 86.479 26.01">
  <g id="Group_245" data-name="Group 245" transform="translate(-325.028 -796.5)">
    <path id="Path_1" data-name="Path 1" d="M325.5,1193.483h.028c.06.053.051.125.055.193.011.2.017.2.215.205.371,0,.742,0,1.112,0,.519,0,1.038,0,1.557,0a.355.355,0,0,1,.245.045c-.026.061-.081.041-.124.041l-3.088,0Z" transform="translate(0 -371.461)" fill="#d5d2e4"/>
    <path id="Path_2" data-name="Path 2" d="M814.505,796.664l-.005-.164h3.217l0,.036a.361.361,0,0,1-.259.048q-1.294,0-2.587,0A.588.588,0,0,0,814.505,796.664Z" transform="translate(-457.846 0)" fill="#a29dc5"/>
    <path id="Path_3" data-name="Path 3" d="M325.5,941.006v-.578a.035.035,0,0,1,.05.014,1.108,1.108,0,0,1,0,.551A.036.036,0,0,1,325.5,941.006Z" transform="translate(0 -134.67)" fill="#a29dc5"/>
    <path id="Path_4" data-name="Path 4" d="M1674.2,1023.36l-.029,0a.35.35,0,0,1,0-.389l.029,0Z" transform="translate(-1262.697 -211.913)" fill="#febbce"/>
    <path id="Path_5" data-name="Path 5" d="M325.527,938.135h-.014l-.013,0v-.161a.121.121,0,0,1,.027,0A.1.1,0,0,1,325.527,938.135Z" transform="translate(0 -132.38)" fill="#d3d0e3"/>
    <path id="Path_6" data-name="Path 6" d="M325.5,949.5a.084.084,0,0,0,.027,0,.1.1,0,0,1,0,.16h-.014l-.014,0Z" transform="translate(0 -143.164)" fill="#d2cfe4"/>
    <path id="Subtraction_4" data-name="Subtraction 4" d="M133.741-6745.724h-.008c-.408,0-.842-.006-1.288-.006s-.908,0-1.418.006a.188.188,0,0,1-.141-.038c-.025-.026-.035-.067-.032-.144.007-.2.005-.4,0-.609,0-.1,0-.2,0-.3a6.276,6.276,0,0,1-1.8.821,7.752,7.752,0,0,1-1.951.264,6.478,6.478,0,0,1-4.5-1.848,6.415,6.415,0,0,1-2.07-4.219,6.6,6.6,0,0,1,1.79-5.329,6.459,6.459,0,0,1,4.687-2.12c.07,0,.139,0,.209,0a6.657,6.657,0,0,1,4.188,1.49,6.8,6.8,0,0,1,2.339,3.828,6.832,6.832,0,0,1,.154,1.432v1.337c0,1.721,0,3.5,0,5.252C133.913-6745.773,133.887-6745.724,133.741-6745.724Zm-6.475-10.3a3.577,3.577,0,0,0-3.565,3.482,3.6,3.6,0,0,0,3.32,3.737c.092.007.186.01.278.01a3.533,3.533,0,0,0,2.572-1.1,3.447,3.447,0,0,0,.987-2.5,3.6,3.6,0,0,0-3.322-3.617C127.442-6756.022,127.351-6756.026,127.267-6756.026Z" transform="translate(256.955 7558.539)" fill="#100a39" stroke="rgba(0,0,0,0)" stroke-miterlimit="10" stroke-width="1"/>
    <path id="Subtraction_1" data-name="Subtraction 1" d="M127.158-6744.833h0A6.629,6.629,0,0,1,123-6746.32a6.791,6.791,0,0,1-2.341-3.788,7.364,7.364,0,0,1-.148-1.031v-.9a6.737,6.737,0,0,1,5.42-6.19,6.963,6.963,0,0,1,1.31-.127,6.552,6.552,0,0,1,3.377.952.211.211,0,0,0,.105.037.167.167,0,0,0,.117-.066c.314-.32.634-.644.944-.957l.009-.009q.384-.387.767-.776c.043-.045.076-.072.113-.072a.165.165,0,0,1,.108.063c.657.674,1.312,1.336,1.947,1.966a.162.162,0,0,1,.063.106c0,.037-.026.07-.072.116-.257.256-.517.519-.759.764l-.1.1c-.281.283-.571.576-.858.861a.169.169,0,0,0-.032.252,6.769,6.769,0,0,1-.862,8.031,6.536,6.536,0,0,1-4.74,2.156C127.3-6744.833,127.238-6744.833,127.158-6744.833Zm.107-10.293a3.6,3.6,0,0,0-3.574,3.6,3.592,3.592,0,0,0,3.557,3.617,3.6,3.6,0,0,0,3.59-3.6,3.6,3.6,0,0,0-3.566-3.619Z" transform="translate(205.02 7557.638)" fill="#100a39" stroke="rgba(0,0,0,0)" stroke-miterlimit="10" stroke-width="1"/>
    <path id="Subtraction_3" data-name="Subtraction 3" d="M127.221-6745.724H127.2a6.7,6.7,0,0,1-6.692-6.828,6.657,6.657,0,0,1,1.97-4.726,6.627,6.627,0,0,1,4.715-1.971h.027a6.646,6.646,0,0,1,4.732,1.986,6.741,6.741,0,0,1,1.953,4.772,6.716,6.716,0,0,1-1.97,4.8A6.608,6.608,0,0,1,127.221-6745.724Zm.066-10.3a3.557,3.557,0,0,0-2.535,1.057,3.593,3.593,0,0,0-1.055,2.565,3.61,3.61,0,0,0,3.574,3.61h.007a3.6,3.6,0,0,0,3.586-3.6,3.624,3.624,0,0,0-1.044-2.564,3.526,3.526,0,0,0-2.527-1.064Z" transform="translate(241.462 7558.533)" fill="#100a39" stroke="rgba(0,0,0,0)" stroke-miterlimit="10" stroke-width="1"/>
    <path id="Subtraction_2" data-name="Subtraction 2" d="M127.215-6745.724h-.033a6.616,6.616,0,0,1-4.687-1.961,6.63,6.63,0,0,1-1.987-4.684,6.879,6.879,0,0,1,1.921-4.87,6.63,6.63,0,0,1,4.768-2.012h.032a6.611,6.611,0,0,1,4.674,1.924,6.755,6.755,0,0,1,2.008,4.675,6.75,6.75,0,0,1-1.919,4.906A6.644,6.644,0,0,1,127.215-6745.724Zm.07-10.3a3.625,3.625,0,0,0-3.586,3.617,3.568,3.568,0,0,0,1.048,2.55,3.565,3.565,0,0,0,2.54,1.065,3.6,3.6,0,0,0,3.579-3.617,3.6,3.6,0,0,0-3.571-3.615Z" transform="translate(220.506 7558.536)" fill="#100a39" stroke="rgba(0,0,0,0)" stroke-miterlimit="10" stroke-width="1"/>
    <path id="Path_11" data-name="Path 11" d="M1384.342,849.682c0-1.13-.029-2.261.007-3.39a6.5,6.5,0,0,1,1.758-4.279,6.385,6.385,0,0,1,3.83-2.086,6.491,6.491,0,0,1,5.747,1.812,6.6,6.6,0,0,1,2,4.04,7.527,7.527,0,0,1,.047.962q0,3.214,0,6.429c0,.151-.031.2-.189.2-.9-.009-1.8-.007-2.707,0-.132,0-.168-.034-.168-.169,0-2.17-.024-4.34.012-6.509a3.574,3.574,0,0,0-7.143-.234c-.007.117,0,.236,0,.353q0,3.182,0,6.364c0,.151-.043.181-.184.18q-1.417-.01-2.835,0c-.14,0-.185-.028-.184-.18.007-1.163,0-2.325,0-3.488Z" transform="translate(-991.374 -40.549)" fill="#100a39"/>
    <path id="Path_12" data-name="Path 12" d="M814.518,797.083c.018-.08.038-.136.149-.135,1.02.007,2.039.006,3.059.007,0,.059,0,.118,0,.177q0,7.946,0,15.892c0,.167-.045.2-.2.2q-1.409-.011-2.819,0c-.153,0-.2-.026-.2-.2Q814.522,805.053,814.518,797.083Z" transform="translate(-457.859 -0.419)" fill="#100a39"/>
    <path id="Path_13" data-name="Path 13" d="M329.011,1102.164c-.052,0-.1.014-.157.014-.957,0-1.915,0-2.872,0-.12,0-.176-.025-.161-.157a3.019,3.019,0,0,0,.005-.3,6.717,6.717,0,0,1,5.492-6.19,6.447,6.447,0,0,1,5.7,1.653,6.62,6.62,0,0,1,2.2,4.8c.007.16-.031.205-.2.2-.9-.009-1.8-.007-2.706,0-.123,0-.16-.031-.161-.16a3.571,3.571,0,0,0-7.077-.758A4.354,4.354,0,0,0,329.011,1102.164Z" transform="translate(-0.299 -279.698)" fill="#100a39"/>
    <path id="Path_14" data-name="Path 14" d="M1630.593,1003.5v.389a1.519,1.519,0,1,1-1.533-1.727A1.5,1.5,0,0,1,1630.593,1003.5Z" transform="translate(-1219.115 -192.439)" fill="#fe628c"/>
  </g>
</svg>
