<svg xmlns="http://www.w3.org/2000/svg" width="123.461" height="36.198" viewBox="0 0 123.461 36.198"><defs><style>.a{fill:#d5d2e4;}.b{fill:#a29dc5;}.c{fill:#febbce;}.d{fill:#d3d0e3;}.e{fill:#d2cfe4;}.f,.g{fill:#fff;}.f{stroke:rgba(0,0,0,0);stroke-miterlimit:10;}.h{fill:#fb7b8e;}</style></defs><g transform="translate(-325.039 -796.5)"><path class="a" d="M325.5,1193.484l.04,0c.085.075.073.179.079.277.016.28.025.292.308.293.53,0,1.061,0,1.591,0,.742,0,1.485,0,2.227,0a.508.508,0,0,1,.35.064c-.037.088-.115.059-.178.059q-2.208,0-4.417,0Z" transform="translate(0 -361.484)"/><path class="b" d="M814.508,796.734q0-.117-.008-.234h4.6l-.006.051a.516.516,0,0,1-.37.068q-1.85,0-3.7,0A.841.841,0,0,0,814.508,796.734Z" transform="translate(-444.447 0)"/><path class="b" d="M325.5,941.257v-.827a.051.051,0,0,1,.071.02,1.585,1.585,0,0,1,0,.788A.051.051,0,0,1,325.5,941.257Z" transform="translate(0 -130.69)"/><path class="c" d="M1674.241,1023.527a.3.3,0,0,0-.042,0,.5.5,0,0,1,0-.557.272.272,0,0,0,.042,0Z" transform="translate(-1225.741 -205.651)"/><path class="d" d="M325.539,938.2h-.019l-.019,0v-.23a.176.176,0,0,1,.039,0A.147.147,0,0,1,325.539,938.2Z" transform="translate(0 -128.468)"/><path class="e" d="M325.5,949.5a.118.118,0,0,0,.039,0,.147.147,0,0,1,0,.228h-.02l-.02,0Z" transform="translate(0 -138.933)"/><path class="f" d="M18.926,19.344h-.009c-.63-.005-1.278-.008-1.925-.008s-1.287,0-1.946.008h-.008a.258.258,0,0,1-.195-.052.27.27,0,0,1-.046-.206c.011-.295.009-.589.006-.9,0-.13,0-.265,0-.4a8.93,8.93,0,0,1-2.573,1.175,11.069,11.069,0,0,1-2.789.377,8.879,8.879,0,0,1-3.381-.656A10.2,10.2,0,0,1,3.01,16.691,9.174,9.174,0,0,1,.052,10.659,9.424,9.424,0,0,1,2.61,3.039,9.508,9.508,0,0,1,5.647.824,9.553,9.553,0,0,1,9.312,0c.1,0,.2,0,.3,0A9.474,9.474,0,0,1,15.6,2.131a9.588,9.588,0,0,1,2.112,2.406,9.8,9.8,0,0,1,1.455,5.118q0,1.3,0,2.6v.005c0,2.233,0,4.542,0,6.813a.3.3,0,0,1-.052.216A.266.266,0,0,1,18.926,19.344ZM9.67,4.61a5.171,5.171,0,0,0-.353,10.325c.136.01.271.015.4.015a5.045,5.045,0,0,0,3.675-1.571A4.93,4.93,0,0,0,14.8,9.8a5.146,5.146,0,0,0-4.749-5.172C9.928,4.615,9.8,4.61,9.67,4.61Z" transform="translate(399.812 800.489)"/><path class="f" d="M9.512,20.62a9.324,9.324,0,0,1-3.19-.562,9.541,9.541,0,0,1-2.761-1.565A9.667,9.667,0,0,1,.212,13.073,10.323,10.323,0,0,1,0,11.6q0-.057,0-.114v-.029q0-.043,0-.086,0-.417,0-.834,0-.114,0-.229A9.776,9.776,0,0,1,.733,7.189,9.668,9.668,0,0,1,2.379,4.545,9.5,9.5,0,0,1,7.753,1.456a9.971,9.971,0,0,1,1.875-.182,9.369,9.369,0,0,1,4.827,1.361.305.305,0,0,0,.151.054.24.24,0,0,0,.168-.1c.432-.441.872-.886,1.3-1.316l.01-.01C16.46.886,16.85.492,17.233.1c.064-.065.111-.1.162-.1a.233.233,0,0,1,.153.091c.915.938,1.852,1.883,2.786,2.811a.236.236,0,0,1,.09.154c0,.052-.037.1-.1.163-.348.347-.7.7-1.041,1.047l-.026.026c-.451.455-.918.926-1.387,1.392a.244.244,0,0,0-.045.362,9.938,9.938,0,0,1,1.122,2.928,9.754,9.754,0,0,1,.154,3.042,9.529,9.529,0,0,1-9.287,8.6C9.713,20.618,9.612,20.62,9.512,20.62ZM9.666,5.9A5.176,5.176,0,0,0,6.043,14.7a5.016,5.016,0,0,0,3.6,1.515h0a5.175,5.175,0,0,0,3.639-8.81A5.036,5.036,0,0,0,9.672,5.9Z" transform="translate(325.539 799.2)"/><path class="f" d="M9.6,19.343h-.03a9.478,9.478,0,0,1-6.8-2.849A9.8,9.8,0,0,1,0,9.579,9.44,9.44,0,0,1,.759,5.865,9.713,9.713,0,0,1,5.859.758,9.383,9.383,0,0,1,9.563,0H9.6a9.535,9.535,0,0,1,6.767,2.84A9.668,9.668,0,0,1,19.16,9.665a9.661,9.661,0,0,1-2.817,6.87A9.446,9.446,0,0,1,9.6,19.343ZM9.7,4.617A5.155,5.155,0,0,0,4.562,9.8a5.16,5.16,0,0,0,5.11,5.164h.006A5.172,5.172,0,0,0,9.7,4.617Z" transform="translate(377.654 800.48)"/><path class="f" d="M9.54,19.343h0a9.281,9.281,0,0,1-3.669-.754A9.773,9.773,0,0,1,.776,13.517,9.325,9.325,0,0,1,0,9.843,9.839,9.839,0,0,1,2.747,2.877,9.481,9.481,0,0,1,9.566,0h.046A9.455,9.455,0,0,1,16.3,2.75a9.681,9.681,0,0,1,2.87,6.687,9.739,9.739,0,0,1-.693,3.867,9.637,9.637,0,0,1-5.117,5.26,9.5,9.5,0,0,1-3.765.778Zm.152-14.73A5.186,5.186,0,0,0,4.564,9.786a5.159,5.159,0,0,0,5.131,5.17h0a5.054,5.054,0,0,0,3.619-1.513A5.187,5.187,0,0,0,9.7,4.612Z" transform="translate(347.686 800.484)"/><path class="g" d="M1384.346,853.917c0-1.616-.041-3.234.01-4.849a9.3,9.3,0,0,1,2.513-6.12,9.132,9.132,0,0,1,5.478-2.983,9.283,9.283,0,0,1,8.219,2.591,9.441,9.441,0,0,1,2.854,5.778,10.842,10.842,0,0,1,.068,1.375q0,4.6,0,9.194c0,.216-.044.282-.27.28-1.29-.012-2.581-.01-3.872,0-.188,0-.241-.049-.24-.242.006-3.1-.034-6.206.017-9.309a5.111,5.111,0,0,0-10.216-.335c-.009.168,0,.337,0,.505q0,4.551.005,9.1c0,.215-.061.259-.263.258q-2.027-.014-4.054,0c-.2,0-.265-.04-.264-.257.01-1.663.006-3.325.006-4.988Z" transform="translate(-962.359 -39.351)"/><path class="g" d="M814.52,797.141c.026-.115.054-.194.213-.193,1.458.01,2.917.008,4.375.01,0,.084.005.168.005.253q0,11.364.007,22.728c0,.239-.065.282-.286.281q-2.015-.016-4.031,0c-.219,0-.289-.037-.289-.281Q814.526,808.539,814.52,797.141Z" transform="translate(-444.459 -0.407)"/><path class="g" d="M330.385,1105.067c-.075.007-.15.019-.225.019-1.369,0-2.738,0-4.107,0-.172,0-.251-.036-.23-.225a4.3,4.3,0,0,0,.007-.434,9.6,9.6,0,0,1,7.855-8.852,9.219,9.219,0,0,1,8.155,2.364,9.468,9.468,0,0,1,3.139,6.868c.01.229-.044.293-.28.291-1.29-.013-2.58-.01-3.87,0-.176,0-.229-.044-.23-.228a5.107,5.107,0,0,0-10.121-1.084A6.221,6.221,0,0,0,330.385,1105.067Z" transform="translate(-0.29 -272.433)"/><path class="h" d="M1631.894,1004.074v.557a2.173,2.173,0,1,1-2.193-2.469A2.14,2.14,0,0,1,1631.894,1004.074Z" transform="translate(-1183.436 -186.752)"/></g></svg>